<svg viewBox="0 0 72.57 101.01" xmlns="http://www.w3.org/2000/svg" xmlns:xlink="http://www.w3.org/1999/xlink"><linearGradient id="a" gradientUnits="userSpaceOnUse" x1="-2.14" x2="90.08" y1="78.96" y2="73.5"><stop offset="0" stop-color="#140f17"/><stop offset=".34" stop-color="#1f2d3b"/><stop offset="1" stop-color="#feffff"/></linearGradient><linearGradient id="b" gradientUnits="userSpaceOnUse" x1="18.95" x2="51.18" y1="61.71" y2="61.71"><stop offset=".02" stop-color="#e05b22"/><stop offset=".16" stop-color="#e1174b"/><stop offset=".34" stop-color="#f05f2e"/><stop offset=".53" stop-color="#f37423"/><stop offset=".91" stop-color="#fdb869"/><stop offset="1" stop-color="#f47825"/></linearGradient><linearGradient id="c" gradientUnits="userSpaceOnUse" x1="18.43" x2="51.64" y1="55.01" y2="55.01"><stop offset="0" stop-color="#140f17"/><stop offset=".34" stop-color="#1f2d3b"/><stop offset=".9" stop-color="#b9baba"/><stop offset=".92" stop-color="#b5b7b7"/><stop offset=".94" stop-color="#aaadad"/><stop offset=".95" stop-color="#979c9c"/><stop offset=".97" stop-color="#7d8585"/><stop offset=".98" stop-color="#5b6868"/><stop offset="1" stop-color="#324444"/><stop offset="1" stop-color="#2a3d3d"/></linearGradient><filter id="d" color-interpolation-filters="sRGB" filterUnits="userSpaceOnUse"><feColorMatrix values="-1 0 0 0 1 0 -1 0 0 1 0 0 -1 0 1 0 0 0 1 0"/></filter><mask id="e" height="70.43" maskUnits="userSpaceOnUse" width="127.4" x="-19.8" y="-11.77"><path d="m20.32 53.16c0 .74 6.59 1.26 14.73 1.26s14.76-.52 14.76-1.26l57.79-.59-3.84-58.24-110.67-6.1-12.89 29.32 4.43 35.31z" filter="url(#d)"/></mask><linearGradient id="f" gradientUnits="userSpaceOnUse" x1="35.06" x2="35.06" y1="33.34" y2="58.66"><stop offset="0" stop-opacity="0"/><stop offset=".32" stop-color="#030303" stop-opacity=".1"/><stop offset=".58" stop-color="#0d0c0c" stop-opacity=".42"/><stop offset=".82" stop-color="#1f1c1c" stop-opacity=".95"/><stop offset=".84" stop-color="#201d1d"/></linearGradient><radialGradient id="g" cx="66.34" cy="-2.08" gradientUnits="userSpaceOnUse" r="66.47"><stop offset="0" stop-color="#f5f5f5"/><stop offset=".17" stop-color="#f5da91"/><stop offset=".52" stop-color="#21ae82"/><stop offset=".62" stop-color="#1fa97e"/><stop offset=".74" stop-color="#199a72"/><stop offset=".83" stop-color="#128a66"/><stop offset=".88" stop-color="#109970"/><stop offset=".98" stop-color="#09c18a"/><stop offset="1" stop-color="#08c990"/></radialGradient><radialGradient id="h" cx="38.82" cy="-1.95" r="46.96" xlink:href="#g"/><radialGradient id="i" cx="62.66" cy="12.17" gradientTransform="matrix(.96606121 .25831325 -.25831325 .96606121 7.79 -11.53)" r="55.08" xlink:href="#g"/><radialGradient id="j" cx="43.74" cy="17.21" gradientTransform="matrix(.96606121 .25831325 -.25831325 .96606121 9.05 -6.27)" r="47.64" xlink:href="#g"/><radialGradient id="k" cx="19.66" cy="18.19" gradientTransform="matrix(.96606121 .25831325 -.25831325 .96606121 8.69 -1.4)" r="39.19" xlink:href="#g"/><radialGradient id="l" cx="37.59" cy="13.77" r="49.52" xlink:href="#g"/><radialGradient id="m" cx="79.98" cy="19.18" gradientTransform="matrix(.99828099 .05860946 -.05860946 .99828099 1.83 -3.47)" r="48.99" xlink:href="#g"/><path d="m60 96.83c-1.51-3.46-10.74-25.47-9.3-42.23v-.24c0-.4.08-.8.13-1.2h-31.53c.05.43.1.85.14 1.29v.15c1.44 16.58-7.58 38.28-9.24 42.11a.82.82 0 0 0 -.32.59c0 2 11.26 3.71 25.14 3.71s25.15-1.66 25.15-3.71a.74.74 0 0 0 -.17-.47z" fill="url(#a)"/><path d="m19 67c0 .79 7.21 1.88 16.11 1.88s16.07-1.14 16.07-1.88l-.51-12.4c0 .79-7 1-15.61 1s-15.61-.18-15.61-1z" fill="url(#b)"/><path d="m51.64 54a7.06 7.06 0 0 1 -.18 1c0 .93-7.27 2-16.4 2s-16.4-1-16.4-1.92a4.19 4.19 0 0 1 -.22-1 3.86 3.86 0 0 1 .1-1h33a4.12 4.12 0 0 1 .1.92z" fill="url(#c)"/><path d="m51.58 53c0-.93-7.39-1.69-16.52-1.69s-16.52.78-16.52 1.69 7.4 1.83 16.52 1.83 16.52-.83 16.52-1.83z" fill="#626366"/><ellipse cx="35.06" cy="53.02" fill="#201d1d" rx="15.45" ry="1.4"/><g mask="url(#e)"><path d="m42.46 33.41a.61.61 0 0 1 .54.59 24.18 24.18 0 0 0 -4.89 7.08c-.28.65-.6 1.32.15 2.07l6.14-8.35a1.92 1.92 0 0 1 1.41.6 26.24 26.24 0 0 0 -7 13.35 17.11 17.11 0 0 0 -.4 4.51c.09 1.1 3.58 4.33 2.25 4.11-1.11-.17-7.1 1.31-8.23 1.31-.91 0-.08-4.43.4-5.23 1.59-2.62 1.17-4.91-.95-7a6.66 6.66 0 0 1 -1.46-2.58 22.28 22.28 0 0 0 -5.63-8.4 3.9 3.9 0 0 1 -.42-.56h2.83c-.12.55.29.88.57 1.24 2.15 2.75 5.23 4.87 5.9 8.64 0 .2.2.47.48.45s.38-.38.42-.63a14.24 14.24 0 0 0 -.12-6.46c-.46-1.54-.87-3.09-1.3-4.64l3.46-.09v2c.12 1.49.79 1.85 2 1s2.59-2.03 3.85-3.01z" fill="#693524"/><path d="m42.46 33.41a.61.61 0 0 1 .54.59 24.18 24.18 0 0 0 -4.89 7.08c-.28.65-.6 1.32.15 2.07l6.14-8.35a1.92 1.92 0 0 1 1.41.6 26.24 26.24 0 0 0 -7 13.35 17.11 17.11 0 0 0 -.4 4.51c.09 1.1 3.58 4.33 2.25 4.11-1.11-.17-7.1 1.31-8.23 1.31-.91 0-.08-4.43.4-5.23 1.59-2.62 1.17-4.91-.95-7a6.66 6.66 0 0 1 -1.46-2.58 22.28 22.28 0 0 0 -5.63-8.4 3.9 3.9 0 0 1 -.42-.56h2.83c-.12.55.29.88.57 1.24 2.15 2.75 5.23 4.87 5.9 8.64 0 .2.2.47.48.45s.38-.38.42-.63a14.24 14.24 0 0 0 -.12-6.46c-.46-1.54-.87-3.09-1.3-4.64l3.46-.09v2c.12 1.49.79 1.85 2 1s2.59-2.03 3.85-3.01z" fill="url(#f)"/><path d="m72.57 28.84a9.69 9.69 0 0 0 -9.39-9.55c.25-.66-2-1.24-2-2 0-3.37-2-3.84-3.75-4.46-1.32-.45-2.65-1.32-3.68-.54a10.5 10.5 0 0 0 -4.1-4.29 10.45 10.45 0 0 0 -20.06-1h-.1a7.33 7.33 0 0 0 -5.86-2.77 7.07 7.07 0 0 0 -6.72 4.37 5.38 5.38 0 1 0 -7.79 7.4 5.64 5.64 0 0 0 -2.23 4.5 1 1 0 0 0 0 .17c-3.57.75-6.07 3.55-5.67 6.49a4.81 4.81 0 0 0 .32 1.14 6.25 6.25 0 0 0 -.58.84 7.23 7.23 0 0 0 8.38 10.55h.08a8.66 8.66 0 0 0 14.89 2.87 14.79 14.79 0 0 0 4.17.6 14 14 0 0 0 7.36-2 13.84 13.84 0 0 0 18.62 1 9.63 9.63 0 0 0 5.09 1.44 9.45 9.45 0 0 0 9.28-7.23 9.45 9.45 0 0 0 3.74-7.53z" fill="url(#g)"/><circle cx="33.66" cy="16.1" fill="url(#h)" r="10.87"/><ellipse cx="47.76" cy="23.87" fill="url(#i)" rx="17.38" ry="16.13" transform="matrix(.97 -.26 .26 .97 -4.54 13.15)"/><ellipse cx="28.38" cy="31.29" fill="url(#j)" rx="11.71" ry="10.87" transform="matrix(.96606121 -.25831325 .25831325 .96606121 -7.12 8.39)"/><ellipse cx="9.68" cy="32.38" fill="url(#k)" rx="7.99" ry="6.54" transform="matrix(.96606121 -.25831325 .25831325 .96606121 -8.04 3.6)"/><ellipse cx="16.72" cy="25.68" fill="url(#l)" rx="9.88" ry="9.05"/><ellipse cx="60.13" cy="29.43" fill="url(#m)" rx="10.87" ry="9.88" transform="matrix(.99828099 -.05860946 .05860946 .99828099 -1.62 3.58)"/></g></svg>