<?xml version="1.0" encoding="utf-8"?>
<!-- Generator: Adobe Illustrator 22.0.1, SVG Export Plug-In . SVG Version: 6.00 Build 0)  -->
<svg version="1.1" id="Layer_1" xmlns="http://www.w3.org/2000/svg" xmlns:xlink="http://www.w3.org/1999/xlink" x="0px" y="0px"
	 viewBox="0 0 204.7 54.7" style="enable-background:new 0 0 204.7 54.7;" xml:space="preserve">
<style type="text/css">
	.st0{fill:#272727;}
	.st1{fill:#A3A3A3;}
	.st2{fill:#919191;}
	.st3{fill:none;stroke:#8A8A8A;stroke-width:0.75;stroke-miterlimit:10;}
</style>
<g>
	<path class="st0" d="M0,0h55.7v54.7H0V0z"/>
	<path class="st1" d="M16.4,42.3c0.1,3.6-2.8,6.5-6.3,6.6c-0.1,0-0.2,0-0.2,0c-2,0.1-4-0.8-5.3-2.3l9.5-9.5
		C15.5,38.4,16.4,40.3,16.4,42.3z M21,48.9h12L27,37L21,48.9z M38.6,48.9h11.6V37l-5.8,5l-5.8-5L38.6,48.9z"/>
	<g>
		<path class="st0" d="M166,0h15.6l0,0v15.8l0,0h-15.8l0,0V0.2C165.8,0.1,165.9,0,166,0z"/>
		<path class="st0" d="M165.8,23h15.8l0,0v31.6l0,0h-8.4c-4.1,0-7.4-3.3-7.4-7.4V23L165.8,23z"/>
		<path class="st0" d="M204.7,31.7h-15.8l0,0V0l0,0h8.4c4.1,0,7.4,3.3,7.4,7.4V31.7L204.7,31.7z"/>
	</g>
	<circle class="st2" cx="196.8" cy="46.8" r="7.9"/>
	<path class="st3" d="M118.9,17.5l0.3,0.3L99.7,37.2L99.5,37L118.9,17.5z"/>
	<path class="st3" d="M99.4,17.7l0.3-0.3L119.2,37l-0.3,0.3L99.4,17.7z"/>
</g>
</svg>
