<svg viewBox="0 0 71.18 109.85" xmlns="http://www.w3.org/2000/svg" xmlns:xlink="http://www.w3.org/1999/xlink"><radialGradient id="a" cx="31.77" cy="145.26" fx="24.093715" fy="134.67876" gradientTransform="matrix(-1 -.01 0 -.15 63.52 116.2)" gradientUnits="userSpaceOnUse" r="28.74"><stop offset="0"/><stop offset=".58" stop-opacity=".99"/><stop offset=".68" stop-opacity=".98"/><stop offset=".97" stop-opacity=".21"/><stop offset="1" stop-opacity="0"/></radialGradient><linearGradient id="b" gradientUnits="userSpaceOnUse" x1="-1.18" x2="88.13" y1="76.47" y2="71.18"><stop offset="0" stop-color="#140f17"/><stop offset=".34" stop-color="#1f2d3b"/><stop offset="1" stop-color="#feffff"/></linearGradient><linearGradient id="c" gradientUnits="userSpaceOnUse" x1="19.25" x2="50.46" y1="59.76" y2="59.76"><stop offset=".02" stop-color="#e05b22"/><stop offset=".16" stop-color="#e1174b"/><stop offset=".34" stop-color="#f05f2e"/><stop offset=".53" stop-color="#f37423"/><stop offset=".91" stop-color="#fdb869"/><stop offset="1" stop-color="#f47825"/></linearGradient><linearGradient id="d" gradientUnits="userSpaceOnUse" x1="18.75" x2="50.91" y1="53.27" y2="53.27"><stop offset="0" stop-color="#140f17"/><stop offset=".34" stop-color="#1f2d3b"/><stop offset=".9" stop-color="#b9baba"/><stop offset=".92" stop-color="#b5b7b7"/><stop offset=".94" stop-color="#aaadad"/><stop offset=".95" stop-color="#979c9c"/><stop offset=".97" stop-color="#7d8585"/><stop offset=".98" stop-color="#5b6868"/><stop offset="1" stop-color="#324444"/><stop offset="1" stop-color="#2a3d3d"/></linearGradient><filter id="e" color-interpolation-filters="sRGB" filterUnits="userSpaceOnUse"><feColorMatrix values="-1 0 0 0 1 0 -1 0 0 1 0 0 -1 0 1 0 0 0 1 0"/></filter><mask id="f" height="68.21" maskUnits="userSpaceOnUse" width="123.37" x="-18.28" y="-11.4"><path d="m20.57 51.48c0 .72 6.38 1.22 14.27 1.22s14.29-.5 14.29-1.22l56-.57-3.72-56.4-107.21-5.91-12.48 28.4 4.28 34.19z" filter="url(#e)"/></mask><linearGradient id="g" gradientUnits="userSpaceOnUse" x1="34.85" x2="34.85" y1="32.29" y2="56.81"><stop offset="0" stop-opacity="0"/><stop offset=".32" stop-color="#030303" stop-opacity=".1"/><stop offset=".58" stop-color="#0d0c0c" stop-opacity=".42"/><stop offset=".82" stop-color="#1f1c1c" stop-opacity=".95"/><stop offset=".84" stop-color="#201d1d"/></linearGradient><radialGradient id="h" cx="65.14" cy="-2.01" gradientUnits="userSpaceOnUse" r="64.37"><stop offset="0" stop-color="#f5f5f5"/><stop offset=".17" stop-color="#f5da91"/><stop offset=".52" stop-color="#21ae82"/><stop offset=".62" stop-color="#1fa97e"/><stop offset=".74" stop-color="#199a72"/><stop offset=".83" stop-color="#128a66"/><stop offset=".88" stop-color="#109970"/><stop offset=".98" stop-color="#09c18a"/><stop offset="1" stop-color="#08c990"/></radialGradient><radialGradient id="i" cx="38.49" cy="-1.89" r="45.48" xlink:href="#h"/><radialGradient id="j" cx="61.57" cy="11.79" gradientTransform="matrix(.96606121 .25831325 -.25831325 .96606121 7.57 -11.39)" r="53.34" xlink:href="#h"/><radialGradient id="k" cx="43.25" cy="16.67" gradientTransform="matrix(.96606121 .25831325 -.25831325 .96606121 8.79 -6.3)" r="46.13" xlink:href="#h"/><radialGradient id="l" cx="19.93" cy="17.62" gradientTransform="matrix(.96606121 .25831325 -.25831325 .96606121 8.45 -1.59)" r="37.95" xlink:href="#h"/><radialGradient id="m" cx="37.3" cy="13.34" r="47.95" xlink:href="#h"/><radialGradient id="n" cx="78.35" cy="18.57" gradientTransform="matrix(.99828099 .05860946 -.05860946 .99828099 1.77 -3.42)" r="47.44" xlink:href="#h"/><ellipse cx="34.82" cy="94.64" fill="url(#a)" opacity=".58" rx="34.82" ry="15.21"/><path d="m59 93.77c-1.46-3.35-10.4-24.66-9-40.9 0-.07 0-.15 0-.22 0-.4.08-.78.13-1.17h-30.54c.05.41.09.83.13 1.25v.14c1.4 16.06-7.33 37.13-8.93 40.78a.8.8 0 0 0 -.32.58c0 2 10.91 3.59 24.35 3.59s24.35-1.61 24.35-3.59a.7.7 0 0 0 -.17-.46z" fill="url(#b)"/><path d="m19.25 64.83c0 .77 7 1.82 15.6 1.82s15.61-1.05 15.61-1.82l-.49-12c0 .77-6.82.94-15.12.94s-15.11-.17-15.11-.94z" fill="url(#c)"/><path d="m50.9 52.26a5.91 5.91 0 0 1 -.17 1c0 .91-7 1.93-15.88 1.93s-15.85-.94-15.85-1.85a3.9 3.9 0 0 1 -.22-1 3.67 3.67 0 0 1 .1-1h32a4.3 4.3 0 0 1 .02.92z" fill="url(#d)"/><path d="m50.85 51.34c0-.9-7.16-1.63-16-1.63s-16 .73-16 1.63 7.17 1.78 16 1.78 16-.87 16-1.78z" fill="#626366"/><ellipse cx="34.85" cy="51.34" fill="#201d1d" rx="14.96" ry="1.36"/><g mask="url(#f)"><path d="m42 32.36a.59.59 0 0 1 .51.55 23.13 23.13 0 0 0 -4.73 6.85c-.28.64-.58 1.29.14 2l6-8.08a1.84 1.84 0 0 1 1.36.58 25.39 25.39 0 0 0 -6.8 12.93 16.91 16.91 0 0 0 -.39 4.37c.09 1.06 3.47 4.19 2.18 4-1.07-.17-6.87 1.27-8 1.27-.88 0-.08-4.29.39-5.07 1.54-2.53 1.13-4.75-.91-6.83a6.3 6.3 0 0 1 -1.42-2.49 21.55 21.55 0 0 0 -5.46-8.14 4.19 4.19 0 0 1 -.4-.54h2.78c-.12.53.28.85.55 1.2 2.08 2.67 5.06 4.71 5.72 8.36 0 .2.18.47.46.45s.37-.37.41-.61a13.79 13.79 0 0 0 -.12-6.26c-.45-1.49-.84-3-1.26-4.49l3.35-.09v1.92c.12 1.43.77 1.78 2 1s2.43-1.94 3.64-2.88z" fill="#693524"/><path d="m42 32.36a.59.59 0 0 1 .51.55 23.13 23.13 0 0 0 -4.73 6.85c-.28.64-.58 1.29.14 2l6-8.08a1.84 1.84 0 0 1 1.36.58 25.39 25.39 0 0 0 -6.8 12.93 16.91 16.91 0 0 0 -.39 4.37c.09 1.06 3.47 4.19 2.18 4-1.07-.17-6.87 1.27-8 1.27-.88 0-.08-4.29.39-5.07 1.54-2.53 1.13-4.75-.91-6.83a6.3 6.3 0 0 1 -1.42-2.49 21.55 21.55 0 0 0 -5.46-8.14 4.19 4.19 0 0 1 -.4-.54h2.78c-.12.53.28.85.55 1.2 2.08 2.67 5.06 4.71 5.72 8.36 0 .2.18.47.46.45s.37-.37.41-.61a13.79 13.79 0 0 0 -.12-6.26c-.45-1.49-.84-3-1.26-4.49l3.35-.09v1.92c.12 1.43.77 1.78 2 1s2.43-1.94 3.64-2.88z" fill="url(#g)"/><path d="m71.18 27.93a9.4 9.4 0 0 0 -9.1-9.25c.24-.64-1.92-1.2-1.92-1.92 0-3.27-1.88-3.72-3.63-4.32-1.27-.44-2.53-1.28-3.53-.53a10.17 10.17 0 0 0 -4-4.12 10.12 10.12 0 0 0 -19.42-1h-.09a7.13 7.13 0 0 0 -5.68-2.67 6.83 6.83 0 0 0 -6.5 4.15 5.21 5.21 0 1 0 -7.58 7.23 5.49 5.49 0 0 0 -2.16 4.37v.13c-3.45.72-5.87 3.43-5.48 6.28a4.59 4.59 0 0 0 .3 1.1 6.52 6.52 0 0 0 -.55.82 7 7 0 0 0 8.1 10.21h.06a8.38 8.38 0 0 0 14.42 2.78 14.22 14.22 0 0 0 4 .58 13.48 13.48 0 0 0 7.13-1.94 13.41 13.41 0 0 0 18 .94 9.33 9.33 0 0 0 4.92 1.4 9.15 9.15 0 0 0 9-7 9.15 9.15 0 0 0 3.71-7.24z" fill="url(#h)"/><circle cx="33.5" cy="15.59" fill="url(#i)" r="10.52"/><ellipse cx="47.15" cy="23.11" fill="url(#j)" rx="16.83" ry="15.62" transform="matrix(.96606121 -.25831325 .25831325 .96606121 -4.37 12.96)"/><ellipse cx="28.38" cy="30.3" fill="url(#k)" rx="11.34" ry="10.52" transform="matrix(.96606121 -.25831325 .25831325 .96606121 -6.86 8.36)"/><ellipse cx="10.27" cy="31.36" fill="url(#l)" rx="7.74" ry="6.34" transform="matrix(.97 -.26 .26 .97 -7.75 3.72)"/><ellipse cx="17.09" cy="24.87" fill="url(#m)" rx="9.57" ry="8.76"/><ellipse cx="59.13" cy="28.5" fill="url(#n)" rx="10.52" ry="9.57" transform="matrix(.99828099 -.05860946 .05860946 .99828099 -1.57 3.52)"/></g></svg>