<svg viewBox="0 0 204.73 54.69" xmlns="http://www.w3.org/2000/svg"><path d="m0 0h55.72v54.69h-55.72z" fill="#272727"/><path d="m16.39 42.27a6.48 6.48 0 0 1 -6.59 6.61 6.64 6.64 0 0 1 -5.29-2.28l9.49-9.45a6.57 6.57 0 0 1 2.39 5.12zm4.61 6.61h12l-6-11.88zm17.62 0h11.61v-11.88l-5.83 5-5.83-5z" fill="#a3a3a3"/><g fill="#272727"><path d="m166 0h15.62a0 0 0 0 1 0 0v15.79a0 0 0 0 1 0 0h-15.79a0 0 0 0 1 0 0v-15.62a.17.17 0 0 1 .17-.17z"/><path d="m165.83 23h15.79a0 0 0 0 1 0 0v31.64a0 0 0 0 1 0 0h-8.36a7.43 7.43 0 0 1 -7.43-7.43v-24.21a0 0 0 0 1 0 0z"/><path d="m188.94 0h15.79a0 0 0 0 1 0 0v31.68a0 0 0 0 1 0 0h-8.36a7.43 7.43 0 0 1 -7.43-7.43v-24.25a0 0 0 0 1 0 0z" transform="matrix(-1 0 0 -1 393.66 31.68)"/></g><circle cx="196.83" cy="46.79" fill="#919191" r="7.9"/><path d="m109.14 13.56h.38v27.57h-.38z" fill="none" stroke="#8a8a8a" stroke-miterlimit="10" stroke-width=".75" transform="matrix(.70710678 .70710678 -.70710678 .70710678 51.36 -69.29)"/><path d="m109.14 13.56h.38v27.57h-.38z" fill="none" stroke="#8a8a8a" stroke-miterlimit="10" stroke-width=".75" transform="matrix(.70710678 -.70710678 .70710678 .70710678 12.68 85.31)"/></svg>